<svg fill="none" height="24" viewBox="0 0 24 24" width="24" xmlns="http://www.w3.org/2000/svg"><g fill="#030d45"><path d="m12 11.796c2.7189 0 4.9231-2.19292 4.9231-4.89799s-2.2042-4.89796-4.9231-4.89796c-2.71894 0-4.92308 2.19289-4.92308 4.89796s2.20414 4.89799 4.92308 4.89799z"/><path d="m14.5641 13.8369h-5.1282c-2.97436 0-5.4359 2.449-5.4359 5.4081 0 .7143.30769 1.3266.92308 1.6327.92307.5102 2.97436 1.1224 7.07692 1.1224 4.1026 0 6.1538-.6122 7.0769-1.1224.5128-.3061.9231-.9184.9231-1.6327 0-3.0612-2.4615-5.4081-5.4359-5.4081z"/></g></svg>